<?xml version="1.0" standalone="no"?>
<!DOCTYPE svg PUBLIC "-//W3C//DTD SVG 1.1//EN" "http://www.w3.org/Graphics/SVG/1.1/DTD/svg11.dtd" >
<svg>
<metadata>
Created by FontForge 20090622 at Sat Aug 20 08:01:04 2016
 By deploy user
SharaWeber
</metadata>
<defs>
<font id="CameronSansExtraBold" horiz-adv-x="652" >
  <font-face 
    font-family="CameronSansExtraBold"
    font-weight="700"
    font-stretch="normal"
    units-per-em="1000"
    panose-1="2 0 8 3 0 0 0 0 0 0"
    ascent="800"
    descent="-200"
    x-height="549.5"
    cap-height="755"
    bbox="-71.7841 -259.03 934.844 835.516"
    underline-thickness="50"
    underline-position="-100"
    unicode-range="U+0020-U+F8FE"
  />
<missing-glyph horiz-adv-x="364" 
d="M66 33h199v600h-199v-600zM33 0v666h265v-666h-265z" />
    <glyph glyph-name=".notdef" horiz-adv-x="364" 
d="M66 33h199v600h-199v-600zM33 0v666h265v-666h-265z" />
    <glyph glyph-name=".null" horiz-adv-x="0" 
 />
    <glyph glyph-name="nonmarkingreturn" horiz-adv-x="333" 
 />
    <glyph glyph-name="space" unicode=" " horiz-adv-x="300" 
 />
    <glyph glyph-name="exclam" unicode="!" horiz-adv-x="293" 
d="M194 645q1 -59 1 -129q0 -48 -1 -147v-114q0 -29 -21 -50.5t-51 -21.5t-51 21.5t-21 50.5v115q1 98 1 145q-1 70 -2 127q0 30 21 51.5t50.5 22t51 -20.5t22.5 -50zM121.5 145q32.5 0 56 -23t23.5 -56t-23.5 -56t-56 -23t-55.5 23t-23 56t23 56t55.5 23z" />
    <glyph glyph-name="quotedbl" unicode="&#x22;" horiz-adv-x="408" 
d="M312 688q2 -43 3 -101v-87q0 -26 -18 -44.5t-44 -18.5t-44.5 18.5t-18.5 44.5v86q-1 55 -3 95q-1 26 16 45t43 20.5t45.5 -15.5t20.5 -43zM184 683q0 -34 -1 -92v-1q-1 -57 -1 -90q0 -26 -18.5 -44.5t-44.5 -18.5t-44 18.5t-18 44.5v92q1 58 1 91q0 26 18.5 44t44.5 18
t44.5 -18t18.5 -44z" />
    <glyph glyph-name="numbersign" unicode="#" horiz-adv-x="657" 
d="M316 381h-44q-4 -29 -9 -60q24 0 44 1q4 30 9 59zM336 526l19 143q4 29 27.5 47.5t53.5 14.5t48 -27.5t14 -53.5l-16 -124q5 0 10 1q29 0 50.5 -21t22 -51t-20.5 -51t-51 -22h-32q-4 -29 -9 -60q6 0 12 1q29 0 50.5 -21t22 -51t-20.5 -51t-51 -22h-35q-11 -73 -25 -157
q-5 -29 -29 -46.5t-53.5 -13t-47 29t-12.5 53.5l21 133h-43l-25 -156q-5 -29 -29 -46.5t-53.5 -13t-47 29t-12.5 53.5l21 133h-27q-30 -1 -51.5 20t-21.5 51t21 51.5t51 21.5h50q5 30 9 60h-30q-30 -1 -51.5 20t-21.5 51t21 51.5t51 21.5h52q10 72 19 144q4 29 27.5 47.5
t53.5 14.5t48 -27.5t14 -53.5l-16 -125q23 0 43 1z" />
    <glyph glyph-name="dollar" unicode="$" horiz-adv-x="660" 
d="M226 442v58v124q-25 -9 -43 -24q-31 -25 -31 -65q0 -32 9 -51q7 -13 22 -23q16 -11 43 -19zM327 272v-97v-90q48 10 74 36q33 33 18 91q-7 27 -37 41q-17 9 -45 16q-5 2 -10 3zM404 528q-10 54 -49 81q-13 9 -28 14v-123v-81q27 -5 46 -10q42 -11 73 -26q89 -44 113 -135
q17 -68 2.5 -126.5t-58.5 -102.5q-67 -67 -176 -79v-18q0 -21 -15 -36t-36 -15t-36 15t-15 36v20q-72 12 -127 49q-52 35 -80.5 87.5t-28.5 117.5q0 29 21 50.5t51 21.5t51 -21.5t21 -50.5q0 -55 45 -85q20 -14 48 -22v86v118q-19 4 -36 9q-51 15 -86 38q-98 64 -96 196
q1 106 82 175q57 47 135 61v12q0 21 14.5 36t35.5 15.5t36 -14.5t15 -36v-13q61 -10 110 -44q89 -61 110 -175q5 -29 -12 -53.5t-46.5 -30t-54 11.5t-29.5 47z" />
    <glyph glyph-name="percent" unicode="%" horiz-adv-x="968" 
d="M269 590q-19 16 -35 21q-10 3 -18 0q-22 -6 -38 -41q-19 -42 -11 -85q7 -39 38 -57q19 -11 50 4q33 16 37 51q4 47 -2 73q-4 13 -12 23q-2 3 -5 6l-1 2zM706 249q-19 16 -34 20q-10 3 -18 1q-22 -7 -38 -42q-19 -41 -11 -84q7 -40 38 -58q18 -10 50 5q33 16 36 51
q5 46 -2 73q-3 13 -11 23q-2 2 -5 6l-2 1q-2 2 -3 4zM804 354q4 -3 7 -6q0 -1 3 -4l4 -4l10 -12q58 -71 45 -200q-6 -56 -37 -99.5t-81 -67.5q-45 -22 -94 -22t-90 23q-88 50 -108 155q-16 89 22 172q44 93 127 119q99 29 192 -54zM703 669l-207 -349l-210 -354
q-13 -21 -37.5 -27.5t-45.5 6.5t-27 37t6 46l181 304q-21 -18 -45 -29q-46 -22 -95 -22.5t-90 22.5q-88 51 -108 156q-16 88 23 172q43 93 127 118q98 30 192 -53q3 -3 6 -7q1 0 4 -3.5t3 -4.5q6 -6 11 -12q57 -71 44 -200q-1 -10 -3 -20l168 282q12 21 36.5 27t46 -7
t27.5 -37t-7 -45z" />
    <glyph glyph-name="ampersand" unicode="&#x26;" horiz-adv-x="732" 
d="M238 292q-20 -12 -35 -22q-30 -21 -45 -39q-13 -16 -16 -31q-3 -21 8 -50q17 -42 55 -57q40 -16 88 -2q46 14 81 51l-26 29q-3 3 -18.5 19.5t-18.5 20.5l-70 78zM553 157q40 -46 72 -88q18 -24 14 -53.5t-27.5 -47.5t-53.5 -14t-48 27l-41 52q-59 -57 -134 -80
q-98 -29 -184 6q-96 39 -135 139q-50 128 31 225q28 34 76 66q12 9 25 17l-21 33q-24 41 -34 78q-13 46 -6 87q15 90 118 140q37 18 82 16.5t85 -20.5q48 -24 76 -70t30 -106q2 -50 -20 -94q-18 -37 -52 -69q-18 -17 -42 -34l53 -59l21 -22v4q3 30 26 49t53 16t49 -26
t16 -53q-7 -63 -29 -119zM273 479q21 14 34 27q28 26 27 52q-1 24 -9 37q-7 10 -18 15.5t-24 6.5q-5 0 -10 -1q-2 -1 -3 -1t-1 -1q-24 -11 -34 -22q-5 -7 -6 -13q-4 -21 23 -67q9 -16 21 -33z" />
    <glyph glyph-name="quotesingle" unicode="'" horiz-adv-x="305" 
d="M211 683q-1 -36 1 -102v-27q1 -28 1 -49q0 -30 -21 -51t-51 -21t-51 21t-21 51q0 19 -1 46v27q-2 68 -1 107q0 30 21.5 50.5t51.5 20t50.5 -22t20.5 -50.5z" />
    <glyph glyph-name="parenleft" unicode="(" horiz-adv-x="371" 
d="M268 659q-113 -192 -114.5 -389.5t112.5 -395.5q16 -26 8 -55t-33.5 -44t-54.5 -7.5t-44 33.5q-134 233 -132.5 469.5t134.5 461.5q15 25 44 32.5t55 -7.5t33 -44t-8 -54z" />
    <glyph glyph-name="parenright" unicode=")" horiz-adv-x="328" 
d="M-31 -125q116 189 121.5 387t-104.5 398q-14 26 -6 55t34 43.5t54.5 6t43.5 -34.5q129 -235 122.5 -471.5t-143.5 -458.5q-16 -26 -45 -32.5t-54 9t-32 44.5t9 54z" />
    <glyph glyph-name="asterisk" unicode="*" horiz-adv-x="446" 
d="M239 681q-1 -15 0 -30q17 6 34 11q25 8 47.5 -4t30.5 -37t-4.5 -48t-37.5 -30q-14 -5 -30 -10q11 -15 19 -27q15 -22 10.5 -47.5t-26 -40t-47 -10t-40.5 26.5q-9 12 -21 30q-7 -11 -13 -19q-4 -6 -7 -11q-15 -21 -41 -25.5t-47 10.5t-25.5 41t10.5 47l7 9l11 17
q-15 5 -32 12q-24 9 -34.5 32.5t-1 48t33 35t47.5 1.5q16 -6 31 -11v31q1 26 19.5 44t44.5 17.5t44 -19t18 -44.5z" />
    <glyph glyph-name="plus" unicode="+" horiz-adv-x="689" 
d="M230 324q0 74 -2 151q0 30 20.5 51.5t50.5 22t51.5 -20.5t21.5 -51q2 -78 3 -153q66 1 149 2q30 0 51 -20.5t21.5 -50.5t-20 -51.5t-50.5 -21.5q-83 -1 -151 -2v-150q0 -30 -21 -51t-51 -21t-51 21t-21 51v150h-152q-30 1 -51 22t-21 51t21 51t51 21q95 -1 151 -1z" />
    <glyph glyph-name="comma" unicode="," horiz-adv-x="318" 
d="M60 -48l4 6q10 15 14 34q3 17 3 61q0 17 1 25q0 30 21.5 50.5t51.5 20t50.5 -22t20.5 -51.5q0 -8 -1 -23q0 -56 -5 -84q-9 -51 -38 -92q-5 -8 -11 -15q-19 -23 -48.5 -26t-52.5 15.5t-26 48.5t16 53z" />
    <glyph glyph-name="hyphen" unicode="-" horiz-adv-x="446" 
d="M94 351q47 -1 120 -1h47h22q29 -1 50 -22.5t20.5 -51t-22 -50.5t-50.5 -21q-10 1 -21 1h-46q-74 0 -123 1q-29 1 -50 22.5t-20.5 51t22 50.5t51.5 20z" />
    <glyph glyph-name="period" unicode="." horiz-adv-x="309" 
d="M137.5 136q32.5 0 56 -23t23.5 -56t-23.5 -56t-56 -23t-56 23t-23.5 56t23.5 56t56 23z" />
    <glyph glyph-name="slash" unicode="/" horiz-adv-x="473" 
d="M375 672l-127 -305q-4 -11 -9 -21l-147 -358q-11 -28 -38.5 -39.5t-55 -0.5t-39.5 38.5t0 55.5l147 359q5 11 9 22l127 305q11 27 38.5 38.5t55 0t39 -39t0.5 -55.5z" />
    <glyph glyph-name="zero" unicode="0" horiz-adv-x="655" 
d="M290 616h-5q-59 2 -101 -66q-48 -78 -51 -196q-2 -119 43 -197q42 -72 112 -73q25 0 45 15q24 17 42 52q43 79 43.5 199t-41.5 199q-18 35 -41 52q-20 14 -45 15h-1zM292 760q71 -1 129 -43q50 -36 84 -101q58 -111 57.5 -266.5t-59.5 -266.5q-35 -64 -85 -101
q-58 -42 -131 -42q-75 1 -135.5 38.5t-100.5 105.5q-65 114 -62 273q4 158 73 269q39 63 94 98q62 39 136 36z" />
    <glyph glyph-name="one" unicode="1" horiz-adv-x="484" 
d="M121 611q10 1 28 3q30 2 43 4q33 4 44 13q4 3 6 8q4 9 5 25v4v14q-1 30 20 51.5t50.5 22t51 -20t22.5 -50.5q1 -62 -1 -326v-69q-1 -18 -1 -42v-41q0 -47 -1 -73v-101q0 -30 -21 -51t-51 -21t-51 21t-21 51v102q0 27 1 74v21.5v18.5v42q1 39 1 69q0 69 1 121
q-16 -4 -36 -6q-17 -3 -52 -5q-15 -1 -22 -2q-30 -3 -53 15.5t-26.5 48.5t15 53t48.5 26z" />
    <glyph glyph-name="two" unicode="2" horiz-adv-x="633" 
d="M16 480q-7 100 59 176q57 66 146 88q92 23 172 -12q92 -41 126 -142q45 -133 -34 -241q-29 -39 -77 -78q-30 -23 -85 -61q-2 -1 -5.5 -3.5t-7 -4.5t-3.5 -3q-84 -56 -116 -89l-7 -7q165 1 285 1q30 0 51 -21t21 -51t-21 -51t-51 -21q-265 0 -385 -3q-10 -1 -20 0
q-13 1 -25 7q-39 19 -40 62q-1 14 3 26q15 86 85 158q28 29 69 59q25 19 70 50q1 0 4.5 2.5t7 4.5t4.5 3q51 35 76 55q33 27 51 50q34 48 13 111q-13 40 -48 55q-34 16 -78 5q-45 -12 -72 -43t-24 -71q2 -30 -17 -53t-49 -25t-52.5 17.5t-25.5 49.5z" />
    <glyph glyph-name="three" unicode="3" horiz-adv-x="646" 
d="M13 520q18 137 120 199q88 54 197 29q51 -11 93 -38.5t69 -66.5q31 -47 34.5 -101.5t-22.5 -110.5q-12 -26 -31 -48q46 -40 66 -106q42 -138 -34 -236q-65 -86 -185 -101q-115 -15 -207 43q-108 68 -123 198q-3 30 15.5 53.5t48 26.5t53 -15.5t26.5 -48.5q7 -61 56 -92
t113 -22q60 8 89 45q31 40 10 107q-12 39 -43 52q-27 10 -72 9q-15 -1 -31 -1q-5 -1 -9 -1q-30 -4 -53 14.5t-27 48.5q-3 26 11.5 48t39.5 29q12 4 24 4h6q15 2 29 2q30 4 52 13q33 13 45 39q19 40 -1 70q-23 35 -74 46q-51 12 -90 -12q-43 -26 -53 -95q-4 -30 -27.5 -48
t-53 -14t-47.5 27.5t-14 53.5z" />
    <glyph glyph-name="four" unicode="4" 
d="M177 271q37 0 117 1h2h12v70v118l-40 -58l-2 -2zM455 683q-3 -90 -3 -341v-68h35q30 0 51 -21.5t21 -51t-21 -50.5t-51 -21q-16 0 -34 -1q1 -68 1 -103q1 -30 -20 -51.5t-50.5 -22t-51 20t-22.5 50.5q0 36 -1 105h-11h-3q-126 -1 -175 -2q-39 0 -59 1q-12 0 -19 1
q-7 0 -12 1q-10 2 -19 6q-6 3 -11 7q-11 8 -18 18q-12 18 -12 40t12 40q31 48 166 242l2 2l51 74l55 79l65 94q17 25 46 30.5t54 -10.5q19 -13 27 -33q8 -17 7 -35z" />
    <glyph glyph-name="five" unicode="5" horiz-adv-x="643" 
d="M448 588q-103 0 -244 3v-3q-6 -32 -15 -93q68 17 137 5q101 -18 162 -90q69 -82 62 -208q-6 -112 -89 -185q-73 -63 -173 -73q-103 -9 -181 42q-91 60 -103 174q-3 30 15.5 53t48 26.5t53 -15.5t26.5 -48q5 -47 39 -70q36 -23 88 -18q54 5 91 38q38 33 41 85
q4 68 -28 106q-27 32 -77 41t-96 -8q-32 -13 -44 -32q-8 -26 -32 -40t-51 -8q-21 4 -36 19t-20 35.5t2 40.5q5 25 21 140q10 72 17 108q8 49 16 74q8 23 27.5 36.5t43.5 13.5q1 0 3 -1h6h6h3q173 -4 281 -4q29 0 50.5 -20.5t21.5 -50.5t-21 -51.5t-51 -21.5z" />
    <glyph glyph-name="six" unicode="6" horiz-adv-x="655" 
d="M374 331q-65 41 -120 25q-50 -14 -79 -66q-29 -54 -16 -108q14 -58 74 -88q21 -11 52 -11t59 11q62 25 70 84q9 62 -1 98q-6 21 -21 37zM153 468q29 18 61 27q121 34 244 -47l6 -4l6 -6q2 -1 5 -4v-1q5 -4 6 -5q9 -9 16 -17q39 -41 54 -95q19 -66 6 -159
q-10 -68 -52 -119t-107 -77q-56 -23 -118 -22t-113 26q-119 61 -148 184q-4 14 -6 30q-43 177 0 324q39 137 140 208q50 35 106.5 45t111.5 -7q56 -19 99 -65t67 -114q10 -28 -3 -55t-41 -37t-55 3t-37 41q-26 74 -75 90q-43 14 -90 -19q-57 -40 -83 -125z" />
    <glyph glyph-name="seven" unicode="7" horiz-adv-x="651" 
d="M532 605q-39 -32 -87 -102t-91 -157q-45 -92 -70.5 -177t-26.5 -143q0 -30 -21.5 -51t-51 -20.5t-50.5 21.5t-21 51q1 156 112 382q49 101 105 181q-121 1 -249 -3q-30 -1 -51.5 19.5t-22.5 50.5t19.5 51.5t49.5 22.5q173 5 400 2q2 0 4 -1q38 3 62 -26q19 -23 16 -52.5
t-26 -48.5z" />
    <glyph glyph-name="eight" unicode="8" horiz-adv-x="651" 
d="M253 302l-14 -2q-53 -13 -82 -58q-26 -40 -15 -79q13 -45 74 -71q24 -11 58 -11t66 11q63 21 70 65q9 50 -1 77q-5 15 -19 27q-3 3 -18 15q-38 21 -74 26q-23 -2 -45 0zM355 591q-57 30 -108 19q-42 -9 -64 -42q-20 -29 -12 -56q10 -35 62 -59q9 -4 22 -6q22 2 44 0
q16 2 31 7q48 16 53 47q7 39 0 60q-4 9 -13 18q-3 3 -15 12zM435 711q4 -2 7 -5q1 -1 4 -3q4 -3 5 -4q9 -7 15 -13q38 -34 53 -79q19 -55 6 -130q-10 -56 -50 -98q7 -6 12 -11q42 -38 59 -88q21 -61 6 -147q-11 -67 -61 -116q-42 -40 -104 -61q-56 -20 -117.5 -19t-110.5 22
q-61 26 -100.5 68.5t-55.5 96.5q-28 102 33 197q22 33 52 59q-40 40 -55 92q-27 92 30 177q55 80 153 102q106 23 214 -37q3 -1 5 -3z" />
    <glyph glyph-name="nine" unicode="9" 
d="M175 365q61 -46 116 -36q50 9 83 58q34 50 26 104q-8 58 -64 93q-20 13 -50 15.5t-60 -5.5q-62 -19 -76 -75q-15 -62 -7 -99q4 -20 18 -38q3 -3 14 -17zM549 483q28 -193 -21 -331q-47 -131 -152 -185q-102 -53 -207 -11q-51 21 -89.5 62t-59.5 97q-11 27 1.5 54.5
t40.5 38t55 -1.5t38 -40q20 -55 65.5 -75t89.5 4q54 28 82 106l6 16q-39 -22 -81 -30q-122 -22 -237 70q-2 2 -5 4q-3 3 -5 6q-11 12 -21 25q-36 45 -48 99q-14 69 9 162q16 66 62.5 112.5t112.5 66.5q58 17 119.5 10.5t108.5 -36.5q113 -71 130 -195q1 -6 1 -11q4 -8 5 -17
z" />
    <glyph glyph-name="colon" unicode=":" horiz-adv-x="313" 
d="M137.5 124q32.5 0 56 -23t23.5 -56t-23.5 -56t-56 -23t-56 23t-23.5 56t23.5 56t56 23zM141.5 526q32.5 0 55.5 -23.5t23 -56t-23 -55.5t-55.5 -23t-56 23t-23.5 55.5t23.5 56t56 23.5z" />
    <glyph glyph-name="semicolon" unicode=";" horiz-adv-x="318" 
d="M60 -48l4 6q10 15 14 34q3 17 3 61q0 17 1 25q0 30 21.5 50.5t51.5 20t50.5 -22t20.5 -51.5q0 -8 -1 -23q0 -56 -5 -84q-9 -51 -38 -92q-5 -8 -11 -15q-19 -23 -48.5 -26t-52.5 15.5t-26 48.5t16 53zM134 526q33 0 56 -23.5t23 -56t-23 -55.5t-56 -23t-56 23t-23 55.5
t23 56t56 23.5z" />
    <glyph glyph-name="less" unicode="&#x3c;" horiz-adv-x="699" 
d="M42 319l462 219q27 13 55 2.5t40.5 -37.5t2.5 -55t-37 -41l-326 -154l72 -33l33 -16l61.5 -29t50.5 -24l109 -51q27 -12 37.5 -40t-2.5 -55t-41 -37.5t-55 2.5l-109 51q-2 1 -50.5 24l-61.5 29l-33 15l-207 96q-23 10 -34.5 33.5t-5.5 47.5q6 37 39 53z" />
    <glyph glyph-name="equal" unicode="=" horiz-adv-x="688" 
d="M81 425q112 -1 284 -1q72 0 109 -1h49q30 0 51 -21t21 -51t-21.5 -51t-50.5 -21h-49q-37 0 -110 1q-172 0 -284 1q-30 0 -51 21t-20.5 51t21.5 51t51 21zM82 226q111 -1 283 -1h110h49q30 0 51 -21.5t21 -51t-21.5 -50.5t-51.5 -21h-49h-109q-172 0 -284 1q-30 1 -51 22
t-21 51t21.5 51t51.5 20z" />
    <glyph glyph-name="greater" unicode="&#x3e;" horiz-adv-x="702" 
d="M569 192l-460 -223q-27 -13 -55 -3t-41 37t-3 55t37 41l325 157l-73 33l-33 16q-14 6 -62 28t-51 23l-109 50q-27 13 -37.5 41t2 55t40.5 37.5t55 -2.5l109 -50q3 -1 51.5 -23l61.5 -28l33 -16l208 -93q24 -11 35.5 -34t5.5 -48q-6 -36 -39 -53z" />
    <glyph glyph-name="question" unicode="?" horiz-adv-x="618" 
d="M271.5 122q32.5 0 56 -23t23.5 -56t-23.5 -56t-56 -23t-55.5 23t-23 56t23 56t55.5 23zM15 536q-2 89 62 155q54 56 135 77t155 -1q88 -26 128 -103q52 -100 15 -188q-14 -34 -42 -67q-16 -19 -47 -49q-2 -1 -4 -4l-4 -3q-41 -40 -54 -60q-15 -23 -14 -47
q3 -30 -16.5 -53t-49 -25t-52.5 17t-25 49q-6 73 36 138q15 23 38 47q13 14 38 38l3 4q3 2 4 3q47 45 56 67q5 12 4 24q-1 18 -14 42q-12 23 -41 32q-35 10 -77.5 -0.5t-67.5 -37.5q-22 -23 -22 -52q1 -30 -19.5 -51.5t-50.5 -22t-51.5 20t-22.5 50.5z" />
    <glyph glyph-name="at" unicode="@" horiz-adv-x="873" 
d="M469 415q-2 34 -27 45q-26 12 -57 -8q-38 -24 -62 -77q-24 -51 -18 -93q5 -33 34 -44q13 -5 22 -2q12 3 27 19q32 35 65 118zM571 101l-8 -2q-36 -8 -67 4.5t-50 43.5q-23 -17 -48 -25q-50 -16 -103 4q-45 18 -72.5 53.5t-35.5 83.5q-12 78 27 163q39 83 106 127
q86 55 172 16q17 -8 32 -20q29 27 65 11q23 -10 31.5 -33t-1.5 -46q-5 -13 -22 -61q-20 -59 -33 -91q-7 -19 -15 -35q-4 -13 -8 -24q-9 -29 -11 -48q-1 -9 0 -15v-3q2 -4 4 -5v-1q2 0 6 1q25 6 60 43q39 41 61 94t16 93q-14 103 -85 164q-64 57 -156 64t-170 -37
q-83 -47 -118 -137q-46 -116 -8 -225q35 -100 125 -158.5t190 -43.5q61 8 116 45zM695 195q15 -1 28 -11q16 -13 18.5 -34.5t-11.5 -37.5q-110 -136 -261 -158q-137 -19 -260 60q-119 77 -166 210q-50 145 10 297q48 123 163 188q105 60 228 50q126 -10 216 -88
q99 -87 119 -227q9 -69 -24 -149q-23 -53 -60 -100z" />
    <glyph glyph-name="A" unicode="A" horiz-adv-x="741" 
d="M322 489l-67 -167q27 0 63 1q2 0 38 1h29q-1 3 -1 5q-5 11 -9 22zM510 1l-61 155q-4 12 -10 25q-26 0 -79 -1q-26 -1 -39 -1q-76 -2 -125 -1l-73 -177q-12 -27 -39.5 -38.5t-55 0t-39 39t0.5 55.5l260 641q7 38 43 53q27 12 54.5 0.5t39.5 -38.5q43 -100 123 -311
q1 -3 4 -10.5t4 -11.5q3 -9 11 -29l15 -39t7 -20l4 -8q2 -4 3 -9l26 -68l59 -152q11 -28 -0.5 -55t-39 -38.5t-55 0.5t-38.5 39z" />
    <glyph glyph-name="B" unicode="B" horiz-adv-x="761" 
d="M197 302h-19q1 -128 1 -202q208 -6 285 17q34 11 46 26t14 47q2 43 -13 65q-12 19 -42 30q-34 13 -92 17l-33 2q-10 -1 -20 -1q-49 -3 -127 -1zM341 448q77 7 117 27q21 12 30 26.5t9 37.5q0 24 -9 37q-10 12 -32 22q-51 21 -161 19q-34 0 -95 -3q-13 -1 -22 -1v-45v-52
v-14v-14v-29v-12h14q3 0 5 -1q8 1 20 1q23 1 34 1q54 1 90 0zM105 754q22 0 87 4q64 3 102 4q62 0 110 -5q62 -8 107 -26q63 -26 96.5 -75t33.5 -117q0 -92 -61 -151q95 -69 87 -206q-9 -156 -161 -203q-60 -18 -155 -22.5t-246 1.5q-18 1 -33 10q-37 20 -37 63
q-1 82 -1 305v49.5v73.5v29v14v14v52v105q0 4 -1 8q0 30 21 51.5t51 21.5z" />
    <glyph glyph-name="C" unicode="C" horiz-adv-x="799" 
d="M555 505q-32 76 -102 107q-66 30 -139 10q-76 -21 -121 -87q-54 -78 -48 -197q4 -100 62 -170q52 -62 127 -77q72 -16 131 21q69 42 100 144q9 29 35 43t55 5.5t43 -35t5 -55.5q-47 -154 -162 -225q-109 -66 -237 -39q-123 26 -207 126q-89 106 -96 256q-8 167 73 285
q76 109 202 144q122 33 236 -17q121 -55 176 -183q12 -27 0.5 -55t-39 -39.5t-55 -0.5t-39.5 39z" />
    <glyph glyph-name="D" unicode="D" horiz-adv-x="780" 
d="M93 -38q-26 4 -44 24t-18 47q0 108 -1 305v17q-1 215 -1 323q0 30 21 51t51 21h8q293 36 432 -53q76 -49 113 -136q31 -74 33 -181q5 -201 -97 -311q-45 -48 -108 -77q-52 -23 -116 -33q-48 -7 -104 -8q-36 0 -87 4q-47 3 -55 2q-14 0 -27 5zM173 612q0 -81 1 -256v-18
q1 -157 1 -239q7 0 9 -1q46 -2 77 -2q46 0 83 5q93 15 140 66q28 30 43 76q18 56 16 134t-21.5 125.5t-58.5 73.5q-85 55 -290 36z" />
    <glyph glyph-name="E" unicode="E" horiz-adv-x="703" 
d="M113 757q77 -1 210 0q135 1 214 0q30 -1 50.5 -22t20 -51t-22 -51t-50.5 -20q-78 1 -211 0q-96 -1 -145 0q-1 -79 -1 -175q48 0 134 1h64q124 1 131 1q30 0 51 -21t21 -51t-21 -51t-51 -21l-130 -1h-64q-87 -1 -134 -1v-42q1 -100 1 -152q48 0 143 1q136 1 216 -1
q30 0 51 -21.5t20.5 -51.5t-22 -50.5t-51.5 -20.5q-78 1 -213 1q-136 -1 -216 0q-26 0 -45 16.5t-24 41.5q-3 8 -3 18q0 75 -1 217q-1 72 -1 107q-1 192 2 327q1 32 25 53q22 21 52 20z" />
    <glyph glyph-name="F" unicode="F" horiz-adv-x="661" 
d="M110 757q71 -1 192 0q124 1 196 0q30 -1 50.5 -22.5t20 -51t-22 -50.5t-51.5 -20q-70 1 -192 0q-82 -1 -124 0q-1 -79 -1 -175q40 0 104 1h56q107 1 113 1q30 0 51.5 -21t21.5 -51t-21.5 -51t-51.5 -21l-112 -1h-56q-65 -1 -104 -1v-42q1 -140 1 -219q0 -30 -21 -51
t-51 -21t-51 21t-21 51q0 75 -1 217q-1 72 -1 107q-1 192 2 327q0 7 2 13q4 26 24.5 43.5t47.5 16.5z" />
    <glyph glyph-name="G" unicode="G" horiz-adv-x="822" 
d="M575 490q-64 114 -159 135q-84 18 -162 -38q-82 -59 -106 -161q-26 -116 41 -240q27 -48 84.5 -73.5t123.5 -19.5t112 41q47 35 59 93q2 8 5 22q1 8 3 16q-133 2 -165 2q-30 0 -51 21t-21 51t21 51t51 21q138 0 246 -3q28 0 48 -20q12 -10 18 -25q5 -12 6 -26
q1 -10 -1 -25q0 -7 -1 -15v-121q0 -3 -1 -12q-1 -101 0 -135q1 -30 -19.5 -51.5t-49.5 -22.5q-26 -1 -46.5 15t-26.5 41q-75 -52 -174 -61q-103 -10 -195 31q-101 45 -152 136q-94 171 -55 341q17 75 59 139t103 107q62 44 133.5 60.5t142.5 1.5q77 -17 142.5 -69.5
t111.5 -136.5q15 -26 7 -54.5t-34.5 -43t-55 -6.5t-42.5 34z" />
    <glyph glyph-name="H" unicode="H" horiz-adv-x="762" 
d="M669 679q-3 -133 -2 -322q0 -35 1 -106q1 -141 1 -219q0 -30 -21 -51.5t-50.5 -21.5t-51 21.5t-21.5 51.5q0 75 -1 217v56h-95h-76q-117 -1 -174 -1v-52q1 -140 1 -219q0 -30 -21 -51t-51 -21t-51 21t-21 51q0 75 -1 217q-1 72 -1 107q-1 192 2 327q1 30 22.5 50.5
t51.5 19.5t50.5 -22.5t19.5 -51.5q-2 -105 -2 -232q57 0 175 1h76q50 0 94 1q0 127 2 233q1 30 22.5 50.5t51.5 19.5t50.5 -22.5t19.5 -51.5z" />
    <glyph glyph-name="I" unicode="I" horiz-adv-x="277" 
d="M184 682q0 -114 -1 -315v-9q-1 -209 -1 -326q0 -29 -21 -50.5t-51 -21.5t-51 21.5t-21 50.5q0 117 1 327v9q1 200 1 314q0 30 21 51.5t51 21.5t51 -21.5t21 -51.5z" />
    <glyph glyph-name="J" unicode="J" horiz-adv-x="561" 
d="M467 680q-2 -124 0 -276q3 -139 1 -182q-3 -81 -19 -138q-18 -60 -70 -97q-43 -30 -101 -40q-51 -8 -103.5 1t-91.5 34q-57 37 -81 103q-8 24 -12 54q-3 19 -5.5 48.5t17.5 52t49.5 25t52 -17t24.5 -49.5q4 -46 10.5 -65.5t22 -29.5t42 -14t52.5 0q25 4 40 15q12 8 15 20
q12 40 14 103q1 40 -1 174q-2 155 0 280q0 30 21.5 51t51.5 20.5t50.5 -22t20.5 -50.5z" />
    <glyph glyph-name="K" unicode="K" horiz-adv-x="757" 
d="M179 683v-259l116 106l224 203q22 20 52 18.5t50 -23.5t18.5 -52t-23.5 -50l-224 -203q-5 -5 -11 -9l118 -149q1 -1 2 -3q12 -16 76.5 -97l71.5 -90q19 -23 15.5 -52.5t-27 -48t-53 -15t-48.5 26.5l-71 89.5l-77 97.5l-2 2l-112 141l-94 -86q0 -97 -1 -200
q0 -29 -21.5 -50t-51.5 -21t-50.5 21.5t-20.5 50.5q1 150 0 376v9q-1 169 0 268q0 30 21 51t51 21t51 -21.5t21 -51.5z" />
    <glyph glyph-name="L" unicode="L" horiz-adv-x="675" 
d="M178 685v-291v-64v-229q35 0 114 1h15q184 2 207 1q30 -2 50 -24t18.5 -51.5t-23.5 -50t-52 -18.5q-19 1 -198 -1h-16q-174 -2 -191 -1q-30 1 -50 23t-19 51v9q1 48 1 290v64v291q0 30 21 51t51 21t51 -21t21 -51z" />
    <glyph glyph-name="M" unicode="M" horiz-adv-x="885" 
d="M649 29q-2 56 -10 316v4q0 13 -1 22l-78 -173l-63 -141q-10 -21 -17 -38l-5 -10q0 -1 -1 -3v-1q-13 -27 -39.5 -38t-53.5 -0.5t-39 38.5l-1 2q-1 2 -2 5l-9 21l-33 73l-97 221l-14 31q-4 -129 -8 -242q-2 -45 -3 -87q-1 -30 -23 -50.5t-51.5 -19.5t-50 23t-19.5 52
q1 41 3 87l13 384l4 126q0 19 1 36v9v3q1 37 29 57t61 12t48 -42q1 -1 3 -7l1 -1v-1l1 -1v-1v-1l1 -1v-1l1 -1v-1l1 -1v-1l1 -1v-1l1 -1v-1v-1l1 -1v-1l1 -1v-1l32 -73l98 -221l76 -173l20 45l208 451q15 33 48 40.5t60.5 -12.5t28.5 -56v-2v-5q1 -13 1 -21q1 -32 2 -74
q4 -121 7 -224v-5q8 -260 10 -316q0 -30 -20.5 -51.5t-50 -22.5t-51.5 19.5t-22 50.5z" />
    <glyph glyph-name="N" unicode="N" horiz-adv-x="764" 
d="M672 679q-6 -315 -5 -614q1 -15 1 -27v-3.5v-3.5v-1v-1q0 -34 -23.5 -54.5t-55 -18.5t-51.5 29q-1 2 -6 8l-1 1v1l-1 1l-1 1v1h-1v1l-1 1l-1 1v1h-1v1l-1 1v1h-1l-1 1v1l-1 1l-1 1l-1 1v1l-1 1l-1 2l-55 74l-168 225l-115 155q-1 -198 -1 -366q0 -36 1 -70
q0 -30 -21 -51.5t-51 -21.5t-51 21t-21 51q-1 34 -1 71q0 201 1 442q1 54 1 102v28v4.5v3.5v2q1 34 24.5 54t54.5 17.5t51 -28.5q1 -2 6 -8l15 -21l55 -74l168 -225l113 -153q1 218 5 435q0 30 21.5 51t51.5 20.5t50.5 -22t20.5 -51.5z" />
    <glyph glyph-name="O" unicode="O" horiz-adv-x="829" 
d="M511 566q-109 75 -203 46q-41 -12 -75.5 -44.5t-57.5 -78.5q-50 -101 -26 -205q26 -111 130 -168q38 -21 88 -21t97 20q50 23 82 65.5t40 100.5q14 109 -4 176q-11 43 -40 77q-7 7 -17 18q-1 0 -3 2.5t-4 4.5l-2 2zM605 676l6 -6l8 -8l1 -2q2 -1 3.5 -2.5l3 -3t1.5 -2.5
q14 -13 23 -24q50 -59 70 -133q26 -96 8 -233q-13 -96 -67.5 -168t-139.5 -110q-76 -34 -159.5 -33t-151.5 38q-80 44 -131.5 111t-70.5 151q-17 76 -7.5 153.5t43.5 147.5q36 73 93 124.5t127 73.5q164 51 335 -70q3 -2 5 -4z" />
    <glyph glyph-name="P" unicode="P" horiz-adv-x="733" 
d="M178 409h18q106 -4 148 -2q64 2 99 14q28 10 39 28q16 25 14 78q-1 30 -13 46.5t-39 26.5q-54 20 -178 16q-25 -1 -69 -4q-11 0 -18 -1q0 -44 -1 -124v-46v-32zM73 743q16 9 34 9q23 1 81 4q46 3 72 4q70 2 119 -2q67 -5 116 -23q67 -26 104.5 -77t40.5 -126
q3 -96 -35 -158t-115 -89q-55 -19 -141 -22q-47 -2 -157 2h-14q0 -108 1 -233q1 -30 -20 -51.5t-51 -21.5t-51 21t-22 50q-2 193 -1 411v47q1 119 1 191q0 21 10.5 38t27.5 26z" />
    <glyph glyph-name="Q" unicode="Q" horiz-adv-x="838" 
d="M546 170q37 46 48 115q15 84 0 153q-11 51 -36 92q-12 18 -26 34q-4 5 -9 9l-3 3q-118 75 -216 47q-86 -26 -135 -121q-50 -99 -28 -207q22 -115 122 -183q24 -16 71 -21q37 -3 74 3q-24 18 -28 47.5t14.5 53.5t48 27.5t53.5 -14.5zM547 -10q-30 -15 -62 -26
q-81 -24 -164.5 -16t-138.5 45q-148 101 -183 275q-15 76 -4 153.5t46 145.5q36 72 93.5 122.5t129.5 71.5q163 48 339 -67q5 -3 9 -7q2 -1 3 -3q3 -2 8 -7q8 -8 15 -16q23 -25 42 -54q39 -63 55 -139q20 -97 1 -207q-17 -103 -75 -177l41 -30q24 -18 28.5 -47.5
t-13.5 -53.5t-47.5 -28.5t-53.5 13.5l-53 39q-7 6 -16 13z" />
    <glyph glyph-name="R" unicode="R" horiz-adv-x="753" 
d="M178 422q10 0 22 -1q107 -3 149 -2q65 2 100 14q30 10 42 28q16 25 16 76q1 24 -10 37q-11 14 -38 23q-58 21 -186 19q-30 -1 -85 -3q-6 -1 -9 -1q0 -44 -1 -125v-46v-19zM561 -38q-29 12 -44 42q-6 14 -9 33q-3 15 -4 50q-2 60 -8 89q-9 42 -28 65q-22 27 -67 35
q-4 1 -7 2q-19 -2 -40 -3q-46 -1 -158 2q-10 1 -18 1q0 -114 1 -246q1 -30 -20 -51.5t-51 -21.5t-51 21t-22 50q-2 193 -1 411v47q1 119 1 191q0 34 26 56q20 18 47 19q20 0 74 3q56 2 88 3q70 1 121 -3q69 -6 117 -24q65 -24 102 -69q42 -53 42 -128q-1 -95 -41 -155
q-16 -23 -38 -42q3 -3 5 -6q43 -51 59 -129q6 -28 8 -62q2 -17 3 -50q0 -17 1 -24q20 -32 6 -66q-11 -28 -38.5 -39.5t-55.5 -0.5z" />
    <glyph glyph-name="S" unicode="S" horiz-adv-x="723" 
d="M462 525q-8 47 -47 75q-40 28 -98 31q-57 2 -101 -21q-38 -21 -46 -53q-10 -35 -4 -53q4 -12 18 -22q19 -13 57 -24q28 -9 89 -22q4 0 5 -1q3 0 5 -1q64 -13 98 -24q58 -17 96 -42q113 -73 94 -215q-7 -55 -40 -98.5t-86 -70.5q-89 -46 -204 -39q-117 7 -198 65
q-103 73 -102 193q0 29 21 50t51 21t51 -21t21 -51q0 -45 41 -74q48 -34 124 -38.5t129 22.5q45 23 50 60q4 31 -5 49q-7 14 -25 26q-21 14 -60 25q-28 9 -86 21q-2 1 -5 1q-2 1 -5 1q-67 15 -100 25q-60 18 -98 44q-112 78 -72 230q25 93 118 143q78 42 175 38
q100 -5 175 -57q88 -62 106 -168q6 -29 -11.5 -53.5t-46.5 -29.5t-53.5 12t-30.5 46z" />
    <glyph glyph-name="T" unicode="T" horiz-adv-x="698" 
d="M26 755q90 0 254 -1t253 -1q30 0 51.5 -21t21.5 -50.5t-21.5 -51t-51.5 -21.5q-78 0 -183 1q-1 -84 0 -253v-183v-48v-39v-57q0 -30 -21 -51t-51 -21t-51 21t-21 51v56v40v48q0 107 -1 183q0 168 1 253q-102 1 -180 1q-30 0 -51 21t-21 50.5t21 51t51 21.5z" />
    <glyph glyph-name="U" unicode="U" horiz-adv-x="753" 
d="M171 679q1 -71 -2 -185q-2 -153 0 -207q4 -84 20 -125q13 -35 41 -50q38 -20 117 -20q72 1 107 22q27 18 41 59q17 48 20 140q2 59 -1 219q-1 91 -1 147q-1 30 20 51t51 21t51 -21t22 -51q0 -54 2 -144q3 -164 0 -227q-4 -113 -27 -181q-31 -90 -102 -135
q-70 -43 -182 -44q-115 0 -185 37q-75 39 -108 124q-25 64 -30 172q-2 41 -1 101q0 31 1 114q2 113 2 182q0 30 21 51.5t51 21.5t51 -21t21 -51z" />
    <glyph glyph-name="V" unicode="V" horiz-adv-x="723" 
d="M626 664l-114 -304q-2 -6 -3 -10l-41 -109l-31 -85l-64 -172q-9 -24 -31 -37t-47 -9q-25 -2 -45.5 11t-29.5 36l-104 284q0 1 -1 2l-145 397q-10 28 3 55t41 37t55 -3t37 -41l144 -395q1 -1 1 -2l46 -125l5 12l31 85l40 109l4 10l114 305q10 28 37.5 40t55.5 1.5
t40 -37.5t2 -55z" />
    <glyph glyph-name="W" unicode="W" horiz-adv-x="1027" 
d="M932 663q-28 -104 -81 -275q-5 -18 -12 -41q-3 -7 -14 -43.5t-14 -44.5l-26 -86l-48 -161q-5 -19 -19 -32q-13 -14 -31 -19q-29 -8 -55 7t-34 43l-24 81q-25 80 -73 217l-15 45q-10 27 -16 45l-18 51l-21 -61q-7 -22 -16 -47l-32 -93t-27 -80l-56 -162
q-9 -28 -35.5 -41.5t-54.5 -3.5q-40 10 -51 50l-6 23l-31 110q0 1 -6.5 24l-16 55.5l-19.5 68l-19 68t-14 48.5l-70 254q-8 29 7 54.5t43.5 33.5t54.5 -7t34 -43l70 -253l51 -181l42 122q9 25 16 47q56 162 90 270q9 29 35.5 42.5t55.5 4.5q8 -3 16 -8q25 -14 32 -43
q20 -71 52 -168q12 -37 30 -88q6 -18 16 -44q12 -35 15 -45l29 -82q3 13 8 27q2 7 13.5 43.5t13.5 44.5q7 22 12 40q52 169 80 272q8 28 34 43t55 7t43.5 -34t6.5 -55z" />
    <glyph glyph-name="X" unicode="X" horiz-adv-x="686" 
d="M198 367l-195 275q-17 24 -12 53.5t29 46.5t53.5 12.5t46.5 -29.5l167 -234l170 236q17 24 46.5 28.5t54 -13t29 -47t-13.5 -53.5l-198 -275l206 -295q17 -25 11.5 -54.5t-30 -46.5t-54 -11.5t-45.5 30.5l-177 252l-180 -253q-17 -24 -46.5 -29.5t-53.5 12t-29 47
t12 53.5z" />
    <glyph glyph-name="Y" unicode="Y" horiz-adv-x="725" 
d="M233 33q1 110 0 245l-53 81l-59 89q-5 8 -9 16l-118 176q-17 24 -11.5 53.5t30.5 46.5t54 11.5t46 -30.5l119 -179q5 -7 10 -15l59 -90l60 83q2 3 3 4q104 146 135 195q16 25 45.5 31.5t54.5 -9.5t31.5 -45t-9.5 -54q-33 -52 -140 -202q-1 -1 -3 -4q-71 -98 -101 -144
q2 -146 0 -260q0 -30 -21.5 -51t-51 -20.5t-50.5 21.5t-21 51z" />
    <glyph glyph-name="Z" unicode="Z" horiz-adv-x="694" 
d="M65 757q33 1 215 -1h17q193 -3 225 -1q29 2 51 -17t24.5 -45.5t-14.5 -52.5q0 -1 -1 -3q-3 -3 -6 -7l-21 -28l-75 -100l-230 -302l-10 -14l-62 -81q167 0 353 -3q30 -1 50.5 -22.5t20 -51t-22 -50.5t-51.5 -20q-305 5 -491 3q-13 -1 -25 4q-13 4 -25 12
q-23 19 -26.5 48.5t14.5 52.5l151 196q5 7 10 13l229 302l16 22q-35 0 -86 1h-17q-179 2 -208 1q-30 -1 -51.5 19.5t-22.5 50.5t19 51.5t50 22.5z" />
    <glyph glyph-name="bracketleft" unicode="[" horiz-adv-x="373" 
d="M208 -230h-100q-25 0 -44 15t-26 38q-3 12 -3 24q2 101 2 405q-1 94 -1 221q0 32 -1 138v1v84q0 23 14 42q21 32 59 32q46 -1 100 0q30 0 51 -21t21 -51t-21 -51t-51 -21q-15 -1 -29 -1v-12v-4v-10t0.5 -14.5t0.5 -18.5v-20.5v-21v-19.5v-17.5v-14.5q1 -126 1 -221
q0 -225 -1 -338h28q30 0 51 -21t21 -50.5t-21 -51t-51 -21.5z" />
    <glyph glyph-name="backslash" unicode="\" horiz-adv-x="476" 
d="M89 727l134 -319q5 -13 10 -24l144 -340q12 -27 1 -54.5t-38.5 -39.5t-55 -1t-39.5 38l-145 341l-10 24l-47.5 113l-60.5 143l-26 63q-12 27 -0.5 55t39 39.5t55 0t39.5 -38.5z" />
    <glyph glyph-name="bracketright" unicode="]" horiz-adv-x="301" 
d="M132 -231h-100q-30 0 -51 21.5t-21 51t21.5 50.5t50.5 21h32q1 113 1 336q-1 94 -1 221q0 32 -1 138v1v13q-15 0 -31 1q-30 0 -51 21t-21 51t21.5 51t50.5 21q46 -1 100 0q16 0 30 -7q20 -8 32.5 -26t12.5 -41v-83v-4v-10t0.5 -14.5t0.5 -18.5v-20.5v-21v-19.5v-17.5
v-14.5q1 -126 1 -221q0 -306 -2 -408q0 -23 -13 -40.5t-33 -25.5q-14 -6 -29 -6z" />
    <glyph glyph-name="asciicircum" unicode="^" horiz-adv-x="679" 
d="M366 700l212 -399q14 -26 5 -54.5t-35.5 -42.5t-55 -5t-41.5 36l-151 285l-37 -65l-15 -28l-31 -54.5t-24 -43.5l-53 -94q-15 -26 -43.5 -34t-54.5 6.5t-34.5 43t6.5 54.5l53 95q1 1 24.5 43l30.5 54q8 15 16 28l98 178q14 26 42.5 34.5t55.5 -5.5q8 -4 15 -11
q11 -9 17 -21z" />
    <glyph glyph-name="underscore" unicode="_" horiz-adv-x="633" 
d="M29 -26h220q142 -1 220 -1q29 0 50.5 -21t21.5 -51t-21.5 -51t-50.5 -21q-79 0 -221 1h-219q-30 0 -51 21.5t-21 51t21 50.5t51 21z" />
    <glyph glyph-name="grave" unicode="`" horiz-adv-x="270" 
d="M87 748q17 -18 50 -56q3 -3 4 -5q10 -11 18 -19q20 -22 18.5 -52t-23.5 -50t-52 -18.5t-50 23.5l-18 21l-4 4l-48 53q-21 22 -20 51.5t23 50t51.5 20t50.5 -22.5z" />
    <glyph glyph-name="a" unicode="a" horiz-adv-x="644" 
d="M348 206q-10 -2 -23 -4q-19 -3 -56 -7q-13 -1 -18 -2q-68 -8 -95 -19q-12 -4 -17 -9q-1 -1 -2 -3q-4 -20 -1 -34q3 -10 9 -18q17 -18 55 -21q46 -3 88 20q39 21 59 57v2q1 20 1 38zM125 316q20 6 45 10.5t64 9.5q5 1 19 2q64 8 87 14q4 1 7 3q-1 24 -3 51q-1 3 -3 5
q-4 6 -14 11q-30 16 -74 14t-71 -21q-21 -15 -22 -39q-1 -40 -35 -60zM16 380q3 96 82 152q62 44 149 48q83 4 148 -30q86 -46 92 -133q9 -123 4 -254v-8q1 -8 -1 -17q-1 -27 -1 -39v-2q29 -4 47.5 -27t15.5 -52q-4 -29 -27 -48t-53 -16q-40 4 -66 18q-16 9 -28 22l-21 -12
q-79 -43 -167 -37q-95 7 -151 68q-66 72 -43 179q10 45 43 76q24 24 60 39q-6 -1 -13 -1q-30 1 -50.5 22.5t-19.5 51.5z" />
    <glyph glyph-name="b" unicode="b" horiz-adv-x="666" 
d="M152 -4q-22 -34 -62 -34q-30 0 -51 21t-21 51v191q-1 71 -1 105q0 200 2 349q1 30 22.5 51t51.5 20.5t50.5 -22t19.5 -51.5q-1 -76 -1 -152q59 39 128 46q57 6 109 -12.5t92 -58.5q85 -87 83 -246q-2 -158 -87 -243q-40 -39 -91.5 -56.5t-107.5 -11.5q-74 8 -136 53z
M167 253v-1q0 -69 43 -116q40 -44 94 -50q49 -5 81 27q43 43 44 143q2 99 -42 143q-32 34 -82 29q-55 -6 -95 -50q-44 -48 -43 -121v-4z" />
    <glyph glyph-name="c" unicode="c" horiz-adv-x="621" 
d="M382 367q-8 31 -47.5 51.5t-83.5 13.5q-47 -7 -75 -45q-39 -52 -36 -153q2 -71 38 -109q31 -32 79 -36t86 20q36 23 43 60q5 29 30 46t54.5 11t46 -30.5t10.5 -54.5q-19 -98 -107 -154q-79 -49 -175 -42q-102 9 -170 80q-76 78 -79 206q-4 149 64 242q63 86 170 102
q97 14 182.5 -35t109.5 -136q7 -29 -8 -55t-43.5 -33.5t-54.5 7.5t-34 44z" />
    <glyph glyph-name="d" unicode="d" 
d="M399 339q-27 61 -71 85q-38 22 -80 10q-44 -11 -73 -53q-36 -51 -35 -125q0 -89 51 -136q43 -40 99 -34q56 7 88 59q42 70 21 194zM553 681q-1 -71 3 -304v-52q2 -89 2 -113q1 -60 1 -95q1 -45 1 -67v-19q-1 -6 -1 -10q0 -3 -1 -5q-1 -7 -3 -13q-4 -9 -9 -17q-3 -3 -6 -7
q-4 -3 -8 -8q-6 -4 -13 -8l-18 -6q-11 -1 -21 -1q-10 2 -19 5q-8 3 -14 7q-5 4 -9 8q-7 6 -12 13q-54 -39 -120 -46q-58 -7 -114 12t-100 59q-96 90 -97 241q0 121 61 208q60 85 155 111q98 26 187 -24q6 -3 11 -7q-1 95 0 140q0 30 21.5 51t51.5 20.5t50.5 -22t20.5 -51.5z
" />
    <glyph glyph-name="e" unicode="e" horiz-adv-x="632" 
d="M387 362q-8 26 -26 45q-34 37 -85 39q-52 2 -89 -36q-18 -19 -30 -47h110q55 0 120 -1zM138 219q5 -47 27 -80q26 -39 69 -52t87 3q49 18 82 65q16 25 45.5 30.5t54 -11t30 -46t-10.5 -54.5q-59 -85 -151 -119q-90 -33 -179 -6q-93 29 -147 111q-57 86 -53 207
q6 154 92 243q81 84 196 80q54 -2 102.5 -24t84.5 -62q81 -88 71 -219q-2 -29 -22.5 -48t-49.5 -19h-1h-3h-13h-22h-23q-75 0 -138 1h-128z" />
    <glyph glyph-name="f" unicode="f" horiz-adv-x="405" 
d="M231 616q-14 2 -22 1h-1.5t-0.5 -1q-3 -4 -5 -14q-4 -16 -6 -42q14 0 35 1q29 1 51 -19.5t22.5 -50.5t-20 -51.5t-50.5 -22.5q-22 -1 -38 -1q1 -15 2 -42q3 -93 3 -157q1 -98 -4 -188q-2 -30 -24 -50t-52 -18.5t-50 24t-18 51.5q4 87 4 180q0 62 -3 153q-1 32 -2 48
q-7 0 -16 1q-30 1 -50.5 23t-19 52t23.5 50t52 19q5 -1 9 -1q3 45 11 77q17 68 65.5 99.5t122.5 21.5q30 -4 48 -27.5t14 -53t-27.5 -48t-53.5 -14.5z" />
    <glyph glyph-name="g" unicode="g" horiz-adv-x="638" 
d="M379 346q-13 47 -53 68q-42 23 -90 10q-51 -13 -77 -59q-34 -61 -14 -159q12 -62 56 -86q41 -22 91 -5q53 17 79 67q33 62 10 153q-2 5 -2 11zM534 484q0 -19 2 -55q0 -13 1 -36l1 -19q1 -12 1 -21q5 -99 6 -163q1 -110 -9 -185q-13 -103 -49 -157q-43 -64 -120 -91
q-65 -23 -138 -13q-71 10 -125 47q-65 45 -80 112q-7 29 9 54.5t45 32t54 -9t32 -44.5q3 -13 22 -26q26 -18 63 -23q38 -5 71 6q31 11 48 36q14 20 22 73q-25 -15 -53 -24q-108 -36 -204 15q-104 56 -130 186q-29 149 30 256q56 99 166 128q104 28 196 -22l14 -8
q21 23 53 23q30 0 51 -21t21 -51z" />
    <glyph glyph-name="h" unicode="h" horiz-adv-x="614" 
d="M165 685q-1 -67 0 -136q48 25 106 27q88 4 145 -29q59 -34 84 -104q18 -49 21 -127q1 -41 -2 -142q-3 -90 -3 -142q1 -30 -20 -51t-51 -21.5t-51.5 20t-21.5 50.5q-1 56 3 149q3 97 2 133q-2 55 -12 82q-7 20 -20 28q-22 12 -69 10q-48 -2 -78 -38q-23 -27 -32 -67
q1 -171 -1 -296q0 -30 -21.5 -50.5t-51 -20.5t-50.5 21.5t-21 51.5q2 121 1 283q-3 12 0 25q0 21 -1 70q-1 173 -1 274q1 30 22 51t51 21t51 -21.5t21 -50.5z" />
    <glyph glyph-name="i" unicode="i" horiz-adv-x="264" 
d="M93 723q33 0 56 -23.5t23 -56t-23 -56t-56 -23.5t-56 23.5t-23 56t23 56t56 23.5zM165 459q1 -65 1 -142q0 -53 -1 -161v-125q0 -30 -21 -51t-51 -21t-51 21t-21 51v125q1 108 1 161q-1 76 -2 140q0 29 21 50.5t50.5 22t51 -20.5t22.5 -50z" />
    <glyph glyph-name="j" unicode="j" horiz-adv-x="264" 
d="M93 723q33 0 56 -23.5t23 -56t-23 -56t-56 -23.5t-56 23.5t-23 56t23 56t56 23.5zM6 -93h12v1q2 69 3 155q1 123 0 315v20q0 14 -1 18v35q0 30 21 51t51 21t51 -21t21 -50q0 -13 1 -35v-19v-19q1 -193 0 -317q-1 -87 -3 -158q-3 -87 -73 -124q-24 -12 -53 -15
q-20 -3 -41 -1q-30 2 -49.5 25t-17 52.5t25 49t52.5 16.5z" />
    <glyph glyph-name="k" unicode="k" horiz-adv-x="613" 
d="M164 684v-266v-10q1 -25 1 -48l2.5 2.5l2.5 2.5t17.5 15l34 29.5l24.5 21.5l140 118q23 19 52.5 16t48.5 -26.5t16 -53t-26 -48.5l-137 -115q-3 -3 -9 -8q112 -160 174 -238q18 -24 14.5 -53.5t-26.5 -48t-53 -15t-48 27.5q-60 75 -171 232l-33 -28l-23 -20
q0 -65 -1 -139q0 -30 -21.5 -51t-51 -20.5t-50.5 21.5t-21 51q1 150 0 375v9v267q0 30 21 51t51 21t51 -21.5t21 -50.5z" />
    <glyph glyph-name="l" unicode="l" horiz-adv-x="258" 
d="M166 679q0 -114 -1 -314v-9q-1 -208 -1 -324q0 -30 -21 -51t-51 -21t-51 21t-21 51q0 116 1 325v9q1 199 1 313q0 30 21 51t51 21t51 -21t21 -51z" />
    <glyph glyph-name="m" unicode="m" horiz-adv-x="909" 
d="M346 297q0 19 -1 36q-1 45 -7 66q-3 12 -7 16q-7 6 -26 11q-57 15 -92 -22q-38 -41 -50 -119v-2q1 -99 1 -254q0 -30 -21 -51t-51 -21t-51 21t-21 50q-1 265 -3 461q0 29 20.5 50.5t50.5 21.5q35 1 57 -27q86 61 198 31q57 -15 90 -48q71 74 187 60q141 -18 180 -136
q13 -42 16 -109q1 -36 -1 -128q-2 -104 0 -170q1 -30 -19.5 -51.5t-50.5 -22.5t-51.5 19.5t-22.5 50.5q-2 69 0 177q2 88 1 119q-2 47 -9 71q-6 16 -15 22q-13 11 -46 15q-27 3 -44 -3q-13 -5 -24 -17q-29 -34 -44 -126v-76q-1 -108 0 -181q1 -30 -19.5 -51.5t-50.5 -22
t-51.5 20t-22.5 50.5q-1 75 0 185v76v8z" />
    <glyph glyph-name="n" unicode="n" horiz-adv-x="613" 
d="M151 526q55 42 121.5 50.5t122.5 -20.5q96 -48 117 -147q8 -38 8 -99q1 -29 -2 -124q-3 -90 -2 -157q0 -29 -21.5 -50.5t-51 -21.5t-50.5 21t-22 51q0 69 3 161.5t2 118.5q0 46 -5 70q-4 18 -11 27q-9 11 -30 22q-17 8 -40 6q-28 -4 -52 -24q-31 -25 -50 -71
q-20 -48 -25 -113q1 -80 1 -197q0 -30 -21 -51t-51 -21t-51 21t-21 50q0 88 -1 152q-1 8 -1 16q0 17 1 34l-2 259q0 29 20.5 50.5t50.5 21.5q42 1 63 -35z" />
    <glyph glyph-name="o" unicode="o" horiz-adv-x="653" 
d="M366 398q-37 26 -71 32q-28 6 -54 -2q-52 -16 -83 -81q-32 -68 -16 -139q16 -73 83 -111q22 -12 52.5 -12.5t58.5 12.5q66 31 76 108q10 76 -2 123q-7 27 -25 49q-4 4 -19 21zM461 506q3 -2 6 -5q2 -3 5 -6l1 -1l6 -6q10 -10 16 -19q39 -46 55 -105q19 -73 5 -178
q-10 -75 -51.5 -132t-106.5 -87q-59 -28 -124 -26.5t-119 30.5q-122 69 -153 206q-27 119 27 232q28 58 71.5 98.5t97.5 58.5q128 40 258 -55q3 -2 6 -5z" />
    <glyph glyph-name="p" unicode="p" horiz-adv-x="669" 
d="M386 397q-36 26 -69 32q-26 6 -49 -2q-49 -17 -78 -81q-31 -70 -16 -142q17 -74 79 -109q48 -28 103 1q62 32 73 114q11 78 -8 132q-12 33 -35 55zM151 525q32 26 70 38q125 43 255 -54q4 -3 8 -7q49 -46 72 -112q31 -87 16 -200q-11 -75 -50 -133t-100 -89
q-57 -30 -121.5 -30t-119.5 32q-8 4 -16 10v-138q-1 -30 -22 -51t-51 -21t-51 21.5t-20 51.5q0 62 -0.5 294.5t-1.5 346.5q0 29 21 50.5t51 21.5q38 0 60 -31z" />
    <glyph glyph-name="q" unicode="q" horiz-adv-x="649" 
d="M365 395q-43 29 -79 37q-28 7 -51 0q-44 -13 -71 -70q-30 -64 -22 -138q8 -72 48 -109q16 -14 47 -20q38 -8 73 1q36 9 58 33q26 29 30 81q8 84 -9 140q-6 20 -15 34q-5 8 -9 11zM555 485q1 -114 1.5 -347t-0.5 -296q0 -30 -21.5 -50.5t-51 -20.5t-50.5 21.5t-21 50.5
v140q-31 -18 -67 -27q-67 -17 -137 -2.5t-115 54.5q-80 74 -94 200q-13 115 34 215q55 117 161 148q109 31 231 -43q21 28 57 29q30 0 51.5 -21t21.5 -51z" />
    <glyph glyph-name="r" unicode="r" horiz-adv-x="449" 
d="M163 280v-23q2 -218 0 -238q-2 -30 -24.5 -49.5t-52 -17.5t-49.5 24.5t-18 51.5q1 15 0 228v58q0 9 -0.5 53.5t-0.5 52.5v64q0 30 21 51t51 21q41 0 62 -35q52 32 123 41q29 4 53 -14t28 -47.5t-14 -53t-48 -28.5q-53 -7 -82 -33q-38 -33 -49 -106z" />
    <glyph glyph-name="s" unicode="s" horiz-adv-x="583" 
d="M327 380q-4 20 -25 33q-25 17 -64 19q-37 2 -64 -12q-17 -8 -19 -17q-3 -11 -3 -19q0 -4 1 -6q2 -4 8 -8q12 -8 38 -17q19 -6 63 -16q3 -1 4 -1q48 -11 72 -19q45 -14 75 -34q93 -61 74 -177q-14 -88 -100 -134q-67 -35 -153 -31t-150 45q-82 53 -87 142q-2 30 17.5 52.5
t49.5 24.5t52 -17.5t24 -49.5q2 -18 23 -32q30 -19 77.5 -21t79.5 14q22 12 25 30q3 16 -1 23q-2 5 -10 11q-14 8 -39 17q-20 6 -62 16q-2 0 -4 1q-50 11 -74 19q-46 15 -76 36q-45 31 -61.5 79t-2.5 107q19 74 95 112q60 29 135 26q77 -4 135 -41q73 -47 88 -127
q6 -29 -10.5 -54t-46 -30.5t-54 11t-30.5 45.5z" />
    <glyph glyph-name="t" unicode="t" horiz-adv-x="400" 
d="M202 96q3 0 7 1h2h1h3q4 1 7 1h20q30 -3 49 -26.5t16 -52.5t-25 -47.5t-51 -17.5q-2 0 -10 -1q-24 -2 -41 0q-51 4 -84 37q-36 38 -38 104q-3 88 -3 324h-19q-30 -1 -51.5 20t-21.5 51t21 51t51 22h21q0 46 1 76t22.5 50.5t51 20t50.5 -22t20 -51.5q-1 -28 -1 -72
q17 0 33 1q30 0 51.5 -20.5t22 -50.5t-20 -51.5t-50.5 -22.5h-37q0 -234 3 -320v-3z" />
    <glyph glyph-name="u" unicode="u" horiz-adv-x="616" 
d="M394 -11q-27 -20 -59 -31q-50 -18 -115 -15q-74 2 -121.5 39.5t-66.5 104.5q-13 46 -15 117q0 38 2 128q3 97 2 151q-1 29 19.5 51t50.5 22.5t51.5 -20t22.5 -50.5q2 -58 -2 -158q-2 -87 -2 -120q2 -53 10 -81q6 -22 16 -30q11 -9 38 -10q71 -3 102 34q45 54 50 203
q-1 102 -1 161q-1 30 20 51.5t51 22t51 -20.5t22 -51q0 -59 1 -156v-6v-2v-11v-24q1 -151 3 -255q0 -30 -20.5 -51.5t-50.5 -21.5q-37 -1 -59 29z" />
    <glyph glyph-name="v" unicode="v" horiz-adv-x="581" 
d="M234 221l24 60v1l63 156l21 52l6 14q0 1 1 4l1 1q11 28 38.5 40t55 0.5t39.5 -39t0 -54.5v-2q-1 -2 -2 -3q-2 -7 -5 -15l-21 -51l-63 -157v-1q-83 -207 -92 -227q-12 -28 -39.5 -38.5t-54.5 0.5t-39 39q0 1 -1 2q-1 4 -3 9l-23 56l-157 388q-11 27 1 54.5t39.5 39
t55 -0.5t38.5 -39z" />
    <glyph glyph-name="w" unicode="w" horiz-adv-x="857" 
d="M119 511l77 -225v-2q6 -18 13 -37l55 152l27 78q4 10 7 19l2 4v1q11 31 39 43t56.5 0.5t40.5 -41.5v-1v-1l1 -1v-1v-1q3 -6 6 -15l19 -50l57 -154l13 -35l27 80q1 2 2 5l63 181q10 28 37 41t55 3t41 -37t3 -55l-63 -181q-1 -2 -1 -4l-65 -186l-21 -62q-3 -9 -6 -17
q0 -2 -1 -4l-1 -2q-10 -31 -38.5 -43t-57 -0.5t-40.5 41.5v1v1l-1 1v1v2l-1 1v1l-1 1v1v1h-1v1v1l-1 1v1v1l-1 1v1l-1 2v1l-1 1v1v1l-1 1v1l-1 1v1v1l-1 1v1v1v1h-1v1v1l-1 1v1v1l-1 1v1v1h-1v1v1l-1 1v1v1l-1 1v1v1l-1 1v1l-1 1v1v1l-1 1v1l-1 1v1v1l-1 1v1v1l-1 1v1l-1 1
v1v1l-1 1v1v2l-58 154l-14 38l-96 -263q-11 -31 -39.5 -42.5t-57 1t-39.5 43.5v1q0 2 -1 4l-5 15l-18 52l-53 160q-1 1 -1 2l-75 222q-10 28 2.5 55t40.5 37t55 -2.5t37 -40.5z" />
    <glyph glyph-name="x" unicode="x" horiz-adv-x="585" 
d="M241 148l-121 -161q-18 -24 -47.5 -28t-53.5 13.5t-28 47t14 53.5l147 196l-128 172q-18 23 -14 53t27.5 48t53 14t48.5 -28l104 -139l33 44l71 95q18 24 47.5 28t53.5 -14t28 -47.5t-14 -53.5l-71 -95q-3 -3 -59 -78l145 -194q18 -24 14.5 -53.5t-27.5 -47.5t-53.5 -14
t-47.5 27z" />
    <glyph glyph-name="y" unicode="y" horiz-adv-x="586" 
d="M489 462l-45 -120l-69 -179q-1 -3 -2 -5q-85 -225 -112 -290q-32 -79 -104 -100q-27 -8 -57 -6q-21 1 -42 8q-28 8 -42.5 34.5t-5.5 55t35 42.5t55 6q10 -3 16 -2q1 1 3 2q4 4 9 15l34 87l-57 140l-12 30l-6 15q-3 7 -5 14q-14 32 -22 54l-1 1l-78 193q-11 28 0.5 55.5
t39 38.5t55 -0.5t38.5 -38.5l79 -194v-1l22 -54l6 -14q4 -12 6 -15q6 -16 11 -28q0 2 1 3q1 3 2 5l68 179l46 120q10 28 37.5 40t55 1.5t40 -37.5t1.5 -55z" />
    <glyph glyph-name="z" unicode="z" horiz-adv-x="594" 
d="M66 565q25 1 162 -1h12q145 -2 168 -1q30 2 51.5 -17.5t24 -46t-15.5 -52.5l-1 -2l-4 -6q-8 -9 -16 -20l-57 -71l-174 -218q-3 -3 -5 -6l-15 -19q115 -1 235 -3q30 -1 50.5 -22.5t20 -51.5t-22 -50.5t-51.5 -19.5q-238 5 -382 3q-30 -1 -51.5 20t-22.5 50q0 30 20 51
l106 132l6 6l159 199q-12 0 -24 1h-13q-134 2 -155 1q-30 -1 -51.5 19.5t-22.5 50t19.5 51.5t49.5 23z" />
    <glyph glyph-name="braceleft" unicode="{" horiz-adv-x="425" 
d="M261 -233q-54 0 -90.5 28t-49.5 78q-9 31 -9 75q-1 22 1 72q2 32 2 48q1 61 -9 93q-7 25 -22 38q-22 8 -35 27q-15 22 -12 48t21 44q7 7 16 12q22 18 32 50t11 87q0 18 -1 55q-1 47 -1 69q1 42 9 72q13 48 45.5 77.5t81.5 35.5q30 4 53.5 -14.5t27 -48t-14.5 -53
t-48 -27.5q-2 0 -3 -1q-1 -2 -2 -6q-4 -14 -5 -39q0 -18 1 -61q1 -40 1 -61q-1 -80 -19 -134q-11 -34 -30 -61q21 -29 32 -67q17 -54 15 -137q0 -19 -2 -52q-2 -46 -1 -64q0 -26 4 -39q30 1 51.5 -20t21.5 -51t-21 -51.5t-51 -21.5z" />
    <glyph glyph-name="bar" unicode="|" horiz-adv-x="277" 
d="M184 761q0 -167 -1 -458v-13q-1 -304 -1 -473q0 -30 -21 -51t-51 -21t-51 21t-21 51q0 169 1 473v13q1 292 1 458q0 30 21 51t51 21t51 -21t21 -51z" />
    <glyph glyph-name="braceright" unicode="}" horiz-adv-x="389" 
d="M264 209q-25 -16 -35.5 -48t-11.5 -89q0 -18 1 -55q2 -48 1 -70q-1 -43 -9 -73q-14 -48 -49 -76.5t-87 -30.5q-30 -2 -52 18t-23.5 50t18.5 52t50 24h3q1 1 1 2q4 13 4 38q1 18 -1 61q-1 40 -1 61q1 79 18 133q12 35 31 62q-21 31 -33 69q-15 53 -15 132q1 18 2 52
q2 44 1 62q0 25 -4 39q-1 5 -3 7l-1 1q-2 0 -5 1q-29 3 -47.5 26.5t-14.5 53.5t27.5 48t52.5 15q51 -7 84 -36.5t46 -78.5q8 -30 9 -73q1 -23 -1 -71q-1 -31 -1 -47q-1 -56 8 -87.5t30 -47.5q17 -8 28 -24q16 -25 10 -54t-31 -46z" />
    <glyph glyph-name="asciitilde" unicode="~" horiz-adv-x="660" 
d="M39 260q48 100 150 97q32 -1 73 -14q20 -6 61 -23q9 -4 15 -7q51 -20 72 -20q7 0 11 3q6 3 13 14q16 26 45 32.5t54.5 -9.5t32 -45t-9.5 -54q-52 -83 -143 -85q-32 0 -70 10q-24 7 -59 21q-6 2 -16 6q-36 15 -51 20q-20 7 -32 7h-5l-1 -1q-1 0 -3 -2q-3 -5 -7 -13
q-13 -27 -41 -36.5t-55 3t-37 41t3 55.5z" />
    <glyph glyph-name="exclamdown" unicode="&#xa1;" horiz-adv-x="291" 
d="M119 543q33 0 56 -23t23 -56t-23 -56t-56 -23t-56 23t-23 56t23 56t56 23zM192 262q1 -60 2 -131q0 -49 -1 -149v-116q0 -30 -21 -51t-51 -21t-51 21t-21 51v116q1 100 1 149q-1 70 -2 129q0 29 20.5 50.5t50.5 22t51.5 -20t21.5 -50.5z" />
    <glyph glyph-name="cent" unicode="&#xa2;" horiz-adv-x="642" 
d="M242 97q1 58 1 157v9q1 102 1 161q-28 -11 -47 -37q-39 -52 -36 -153q2 -71 39 -109q17 -19 42 -28zM341 574q73 -13 128.5 -58.5t73.5 -111.5q8 -29 -7 -55t-44 -33.5t-55 7.5t-33 44q-5 18 -22 33.5t-41 24.5q-1 -60 -1 -162v-10q0 -98 -1 -156q14 5 25 12q36 23 43 60
q6 29 30.5 46t54 11t46 -30.5t11.5 -54.5q-20 -98 -108 -154q-46 -29 -102 -38v-42q0 -20 -14 -34t-34 -14t-34.5 14t-14.5 34v42q-87 14 -146 76q-76 78 -79 206q-4 149 64 242q61 83 163 101v12v12q0 20 14 34t34 14t34.5 -14t14.5 -34v-24z" />
    <glyph glyph-name="sterling" unicode="&#xa3;" horiz-adv-x="674" 
d="M547 -8q-60 -37 -107.5 -47.5t-95.5 2.5q-12 3 -29 9q-1 0 -11.5 3.5l-13.5 4.5q-40 14 -78 17q-18 1 -60 -10q-2 0 -5 -1q-41 -11 -64 -13q-29 -4 -52.5 14t-27.5 48q-2 18 4 34q5 18 19 32q50 48 72 90q16 31 16 61q1 25 -11 55q-1 2 -2 5q-18 0 -39 -1q-20 0 -34.5 14
t-14.5 34q-1 18 10.5 31.5t28.5 16.5l-14 27q-26 57 -28 105q-3 65 35 125q51 80 141 112q81 28 167 8q88 -21 143 -83q63 -71 59 -169q-1 -30 -23.5 -50t-52 -18.5t-49.5 23.5t-19 52q2 39 -23 66q-25 28 -68 38q-45 11 -87 -4q-43 -14 -67 -52q-13 -22 -12.5 -41.5
t15.5 -50.5q7 -14 28 -53q11 -19 18 -33q12 0 22 1h81q20 1 34.5 -13t15 -34t-13.5 -34.5t-34 -14.5q-32 -1 -68 -1q7 -32 6 -63q0 -56 -25 -111q49 -4 102 -22l9 -3l12 -4l5 -2q12 -4 19 -5q15 -4 28 -2q24 5 64 30q26 15 55 8t44.5 -32.5t8 -54.5t-32.5 -44z" />
    <glyph glyph-name="quoteleft" unicode="&#x2018;" horiz-adv-x="323" 
d="M209 633q-16 -16 -17 -52q-1 -15 2 -26q0 -1 1 -1q19 -19 20.5 -46t-14.5 -49q-19 -24 -48.5 -27.5t-53.5 14.5q-30 24 -43 69q-10 33 -8 72q3 92 60 148q21 21 51 21t51 -21.5t20.5 -51t-21.5 -50.5z" />
    <glyph glyph-name="quoteright" unicode="&#x2019;" horiz-adv-x="330" 
d="M74 549q17 15 19 51q1 16 -2 27q-19 20 -20 47t16 48q19 24 48.5 27t52.5 -16q30 -24 42 -69q9 -34 7 -73q-6 -92 -63 -147q-22 -20 -52 -19.5t-50.5 22.5t-19.5 51.5t22 50.5z" />
    <glyph glyph-name="quotedblleft" unicode="&#x201c;" horiz-adv-x="438" 
d="M173.5 637.5q-18.5 -18.5 -19.5 -57.5q-1 -17 2 -30q1 0 1 -2v-1q18 -17 20 -41t-13 -43q-16 -21 -41.5 -24t-46.5 13q-28 21 -40 63q-9 32 -8 69q4 89 57 143q19 18 45 18t44 -18.5t18 -44.5t-18.5 -44.5zM326.5 644.5q-18.5 -18.5 -20.5 -57.5q0 -17 3 -30q1 0 1 -1v-2
q18 -17 20 -41t-13 -43q-16 -21 -41.5 -24t-46.5 13q-28 21 -40 63q-9 32 -8 69q4 89 57 143q19 18 45 18t44 -18.5t18 -44.5t-18.5 -44.5z" />
    <glyph glyph-name="quotedblright" unicode="&#x201d;" horiz-adv-x="439" 
d="M199 545q19 18 22 57q1 17 -3 30v2v1q-18 17 -19.5 41t14.5 43q16 20 41.5 23t46.5 -13q27 -23 39 -65q8 -32 6 -69q-6 -89 -60 -141q-19 -18 -45 -17.5t-44 19.5t-17.5 45t19.5 44zM46 541q19 18 22 58q1 17 -3 29v2v1q-18 17 -19.5 41t14.5 44t41.5 22.5t46.5 -13.5
q27 -22 39 -65q8 -32 6 -69q-6 -89 -60 -141q-19 -18 -45 -17t-44 19.5t-17.5 44.5t19.5 44z" />
    <glyph glyph-name="uni3000" unicode="&#x3000;" horiz-adv-x="1000" 
 />
    <glyph glyph-name="uniF8FE" unicode="&#xf8fe;" horiz-adv-x="300" 
 />
    </font>
</defs>
</svg>
